<svg width="27" height="26" viewBox="0 0 27 26" fill="none" xmlns="http://www.w3.org/2000/svg">
<mask id="mask0_2036_1467" style="mask-type:alpha" maskUnits="userSpaceOnUse" x="0" y="0" width="27" height="26">
<rect width="27" height="26" fill="#D9D9D9"/>
</mask>
<g mask="url(#mask0_2036_1467)">
<path d="M12.375 9.75016V6.50016H9V4.3335H12.375V1.0835H14.625V4.3335H18V6.50016H14.625V9.75016H12.375ZM7.875 23.8335C7.25625 23.8335 6.72656 23.6213 6.28594 23.197C5.84531 22.7727 5.625 22.2627 5.625 21.6668C5.625 21.071 5.84531 20.5609 6.28594 20.1366C6.72656 19.7123 7.25625 19.5002 7.875 19.5002C8.49375 19.5002 9.02344 19.7123 9.46406 20.1366C9.90469 20.5609 10.125 21.071 10.125 21.6668C10.125 22.2627 9.90469 22.7727 9.46406 23.197C9.02344 23.6213 8.49375 23.8335 7.875 23.8335ZM19.125 23.8335C18.5063 23.8335 17.9766 23.6213 17.5359 23.197C17.0953 22.7727 16.875 22.2627 16.875 21.6668C16.875 21.071 17.0953 20.5609 17.5359 20.1366C17.9766 19.7123 18.5063 19.5002 19.125 19.5002C19.7437 19.5002 20.2734 19.7123 20.7141 20.1366C21.1547 20.5609 21.375 21.071 21.375 21.6668C21.375 22.2627 21.1547 22.7727 20.7141 23.197C20.2734 23.6213 19.7437 23.8335 19.125 23.8335ZM1.125 4.3335V2.16683H4.80938L9.59062 11.9168H17.4656L21.8531 4.3335H24.4125L19.4625 12.946C19.2563 13.3071 18.9797 13.587 18.6328 13.7856C18.2859 13.9842 17.9062 14.0835 17.4937 14.0835H9.1125L7.875 16.2502H21.375V18.4168H7.875C7.03125 18.4168 6.38906 18.0647 5.94844 17.3606C5.50781 16.6564 5.49375 15.9432 5.90625 15.221L7.425 12.5668L3.375 4.3335H1.125Z" fill="#008EDB"/>
</g>
</svg>
